<mxfile host="65bd71144e">
    <diagram id="lATfXC6TB3KPtxMEa5s9" name="Page-1">
        <mxGraphModel dx="557" dy="638" grid="1" gridSize="10" guides="1" tooltips="1" connect="1" arrows="1" fold="1" page="1" pageScale="1" pageWidth="850" pageHeight="1100" math="0" shadow="0">
            <root>
                <mxCell id="0"/>
                <mxCell id="1" parent="0"/>
                <mxCell id="11" style="edgeStyle=none;html=1;exitX=0.5;exitY=1;exitDx=0;exitDy=0;entryX=0.5;entryY=0;entryDx=0;entryDy=0;" parent="1" source="2" target="5" edge="1">
                    <mxGeometry relative="1" as="geometry"/>
                </mxCell>
                <mxCell id="14" style="html=1;exitX=0.5;exitY=1;exitDx=0;exitDy=0;entryX=0;entryY=0;entryDx=0;entryDy=0;" parent="1" source="2" target="7" edge="1">
                    <mxGeometry relative="1" as="geometry">
                        <Array as="points"/>
                    </mxGeometry>
                </mxCell>
                <mxCell id="2" value="App" style="whiteSpace=wrap;html=1;" parent="1" vertex="1">
                    <mxGeometry x="270" y="30" width="120" height="60" as="geometry"/>
                </mxCell>
                <mxCell id="13" style="html=1;exitX=0.5;exitY=1;exitDx=0;exitDy=0;" parent="1" source="3" target="4" edge="1">
                    <mxGeometry relative="1" as="geometry"/>
                </mxCell>
                <mxCell id="3" value="HogTile/Card" style="ellipse;whiteSpace=wrap;html=1;" parent="1" vertex="1">
                    <mxGeometry x="135" y="290" width="130" height="80" as="geometry"/>
                </mxCell>
                <mxCell id="4" value="Hog Details" style="ellipse;whiteSpace=wrap;html=1;" parent="1" vertex="1">
                    <mxGeometry x="145" y="460" width="115" height="60" as="geometry"/>
                </mxCell>
                <mxCell id="12" style="html=1;exitX=0.5;exitY=1;exitDx=0;exitDy=0;entryX=0.5;entryY=0;entryDx=0;entryDy=0;" parent="1" source="5" target="3" edge="1">
                    <mxGeometry relative="1" as="geometry"/>
                </mxCell>
                <mxCell id="5" value="&lt;span&gt;HogContainer&lt;/span&gt;" style="whiteSpace=wrap;html=1;" parent="1" vertex="1">
                    <mxGeometry x="140" y="170" width="120" height="60" as="geometry"/>
                </mxCell>
                <mxCell id="15" style="html=1;exitX=0.25;exitY=1;exitDx=0;exitDy=0;" parent="1" source="7" edge="1">
                    <mxGeometry relative="1" as="geometry">
                        <mxPoint x="420" y="330" as="targetPoint"/>
                    </mxGeometry>
                </mxCell>
                <mxCell id="16" style="edgeStyle=none;html=1;exitX=0.75;exitY=1;exitDx=0;exitDy=0;" parent="1" source="7" edge="1">
                    <mxGeometry relative="1" as="geometry">
                        <mxPoint x="590" y="320" as="targetPoint"/>
                    </mxGeometry>
                </mxCell>
                <mxCell id="7" value="Nav Bar" style="whiteSpace=wrap;html=1;" parent="1" vertex="1">
                    <mxGeometry x="430" y="170" width="120" height="60" as="geometry"/>
                </mxCell>
                <mxCell id="9" value="Checkbox&lt;br&gt;greased" style="ellipse;whiteSpace=wrap;html=1;" parent="1" vertex="1">
                    <mxGeometry x="340" y="330" width="130" height="80" as="geometry"/>
                </mxCell>
                <mxCell id="10" value="Sort ing/Drop Down&amp;nbsp;" style="ellipse;whiteSpace=wrap;html=1;" parent="1" vertex="1">
                    <mxGeometry x="530" y="320" width="130" height="80" as="geometry"/>
                </mxCell>
            </root>
        </mxGraphModel>
    </diagram>
</mxfile>